<svg id="Camada_1" data-name="Camada 1" xmlns="http://www.w3.org/2000/svg" viewBox="0 0 1012.03 266.08">
  <defs>
    <style>
      .cls-1 {
        fill: #e50014;
      }

      .cls-2 {
        fill: #e30613;
      }
    </style>
  </defs>
  <path class="cls-1" d="M655.59,478.89C661,464.22,666,450.7,671,437.18q11.89-32.24,23.81-64.46c1.15-3.1,2.63-6.09,4-9.1,4.52-9.76,12.17-13.24,24.17-9.54,10,3.08,14.71,12.51,12,23.08-3,11.78-8.5,22.66-13,33.9q-19.38,48.57-39.07,97c-1.12,2.76-2.45,5.45-3.82,8.1-5,9.77-13,14.88-24.08,14.72s-18.95-5.63-23.5-15.59C619,487.81,608.46,459.48,597,431.53c-6.61-16.12-12.93-32.37-19.25-48.61a36.47,36.47,0,0,1-2.2-8.66,19,19,0,0,1,14.53-20.56c12.14-2.86,19.5.48,23.3,8.92,7.31,16.23,12.41,33.27,18.5,49.94C639.8,434.22,647.42,456,655.59,478.89Z" transform="translate(201.08 -265.37)"/>
  <path class="cls-1" d="M14.53,409.2q0-45.46,0-90.93a58.28,58.28,0,0,1,1.17-13.88c2.67-10.94,10.32-17,21.1-16.73,11.25.25,19.17,7,21.1,18.14a46.89,46.89,0,0,1,.62,7.94q.06,95.43,0,190.85a41.16,41.16,0,0,1-.91,9.41c-2.63,11.1-11.45,17.51-22.7,16.8-10.87-.69-18.84-8.83-19.83-20.72-.51-6.12-.53-12.3-.54-18.45Q14.48,450.41,14.53,409.2Z" transform="translate(201.08 -265.37)"/>
  <path class="cls-1" d="M810.91,441.3c0,21.79.07,43.59,0,65.39,0,13.5-7.92,22.92-19.76,24.05-13.13,1.26-22.55-7.47-24-22.28-.21-2.14-.21-4.32-.21-6.48q0-60.64,0-121.3a56,56,0,0,1,.81-9.42c2.27-13,10.81-19.44,24.06-18.31,10.74.92,19,10.14,19,21.95C811,397,810.91,419.16,810.91,441.3Z" transform="translate(201.08 -265.37)"/>
  <path class="cls-1" d="M810.91,311.23c0,12.86-8.69,21.35-21.8,21.34S767,324,766.93,311.37c-.09-12.13,10-21.94,22.47-21.81C802.36,289.69,810.93,298.32,810.91,311.23Z" transform="translate(201.08 -265.37)"/>
  <path class="cls-1" d="M-22,355.05c-1.61-30.7-20.5-53.25-50.42-60.23-11.77-2.74-23.76-3-35.73-3.1-23.31-.18-46.64-.92-69.93.43-14.21.83-22,9.21-22.87,23.44-.12,1.82-.12,3.66-.12,5.49q0,45.21,0,90.42t0,90.42a65,65,0,0,0,.24,7c1.46,13,10.11,21.41,22.41,21.93s21.77-7.18,24.21-19.9a54.08,54.08,0,0,0,.78-9.93c.07-20.49.11-41,0-61.45,0-3.45.92-4.54,4.45-4.49,14.33.19,28.66,0,43,.1a128.48,128.48,0,0,0,29.72-3.24c21.24-4.92,38.66-15.16,48.09-35.86C-22.29,383-21.26,369.15-22,355.05Zm-76.44,42c-14.32,3.06-28.81,2-43.26,2.12-11.69.13-11.69,0-11.69-11.91V363.28q0-16,0-31.93c0-1.06-.17-2.23.34-3a2.32,2.32,0,0,1,2.15-.79c17.76.38,35.57-1.05,53.23,2.16,19.49,3.54,26.91,15.32,27.43,33.54S-80,393.08-98.44,397Z" transform="translate(201.08 -265.37)"/>
  <path class="cls-2" d="M261.37,506.71c-2.11-9-5.44-17.77-6.54-27.09-1.53-13.14.08-26.27-.2-35-.3-18.24.42-32.05-1.59-45.81-3.44-23.54-15.52-37.22-38.52-42.8-17.85-4.33-36-4.41-54.11-2.62-14.08,1.39-27.42,5.51-39.17,13.67-11.5,8-19,18.56-19.17,33.14-.08,7.54,4.67,13.44,12.19,15.77,8.3,2.57,15,.69,19.4-5.61,2.21-3.12,4.25-6.35,6.38-9.53,6-9,14-15.06,24.9-16.73a81.89,81.89,0,0,1,24.86-.25c9.74,1.46,16.18,6.48,18.92,16a79.52,79.52,0,0,1,2.37,12.73c.35,2.89-.54,4-3.38,4.8-14.4,4.1-29,7.41-43.61,10.56-12,2.59-24.33,4.06-35.95,8.17-18,6.38-30.56,18.15-33.38,37.91-2.65,18.48,3.46,33.91,18.31,45.24,16.09,12.28,34.7,13.25,53.82,10.17,16.35-2.63,30.34-10.55,43.38-20.29,3-2.25,4.55-2.55,6.67,1.06a57.13,57.13,0,0,0,13.7,16.39c7,5.54,15,5.68,22.72.67S263.54,516,261.37,506.71Zm-52.52-33.86c-4.61,16.78-17.29,24.36-33.09,28a40.31,40.31,0,0,1-18.79,0c-13.06-3.2-21.16-15.75-17.9-28.34,2.52-9.75,10.49-13.74,19.09-16.4,6.48-2,13.22-3.2,19.88-4.62,11-2.34,21.94-4.9,33-8.27C211.46,453.5,211.48,463.31,208.85,472.85Z" transform="translate(201.08 -265.37)"/>
  <path class="cls-2" d="M561.65,340.45c-21.15.13-42.3.06-63.45.06-7.22,0-7.18,0-8.1-7.24-2.19-17.25-8.54-32.73-20.11-45.82-24.19-27.36-60.24-29.59-87.18-5.05-15.72,14.31-23.16,33-25.43,53.75-.42,3.82-1.67,4.47-5.12,4.44-22.15-.15-44.3.06-66.45-.19-4.63,0-6.16.83-6.11,5.86.3,25.8.12,51.6.14,77.4q0,53.67.13,107.35c6.18.83,12.38.21,18.57.33,2.75-2.11,1.84-5.17,1.84-7.85q.11-55.44,0-110.87a90.62,90.62,0,0,1,2-18.82c2.84-13.65,10.67-23.91,23-29.72,24.81-11.67,48.61-7.95,71,6.9,8.81,5.84,16,13.56,23,21.38,3.76,4.19,5,4.28,8.71.18a159.25,159.25,0,0,1,15-15.3c19.48-16.67,41.57-23.5,66.81-17.75,18.59,4.23,31.12,15.26,35.46,34.41a80.08,80.08,0,0,1,2.13,17.8q-.06,55.94,0,111.87c0,2.66-1,5.75,1.91,7.78,5.5-.14,11,.49,16.5-.34,0-.5.12-1,.12-1.49q0-92.38.09-184.76C566.21,341.09,565,340.42,561.65,340.45Zm-82.21.05q-27.74,0-55.46,0H368c-2.12,0-4.35.56-3.9-3.12,2.3-18.88,8.7-36,22.81-49.17,25.24-23.53,59.45-20.28,80.55,7.21,9.47,12.33,14.34,26.43,16.21,41.75C484.2,341.27,481.66,340.5,479.44,340.5Z" transform="translate(201.08 -265.37)"/>
  <path class="cls-1" d="M446.77,442.91c.36-10,.65-19.94,3.35-29.61,4.29-15.34,20.53-25.45,35.81-22.45,8.41,1.64,14.29,8,16.09,17.48,1.64,8.7,1.66,17.53,1.71,26.31.18,32.08.1,64.16.12,96.25-18,.08-36,.1-54,.29-3.67,0-2.87-2.35-2.88-4.35,0-17.32,0-34.64,0-52C447,464.21,446.84,453.56,446.77,442.91Z" transform="translate(201.08 -265.37)"/>
  <path class="cls-1" d="M344.11,530.89c0-33.61,0-67.21.09-100.81a172.75,172.75,0,0,1,1-17.91c2.05-18.83,17-27.21,34.32-19.33,14.06,6.39,19.19,18.33,20.53,32.82,1.71,18.43.7,36.9.91,55.35.18,16.63.06,33.27.07,49.9Z" transform="translate(201.08 -265.37)"/>
</svg>
